<svg xmlns="http://www.w3.org/2000/svg" xml:space="preserve" id="_x32_" width="800" height="800" fill="#000" stroke="#000" transform="scale(-1 1)" version="1.1" viewBox="0 0 512 512"><g id="SVGRepo_iconCarrier"><style>.st0{fill:#000}</style><path d="M500.398 187.926a47.42 47.42 0 0 0-35.892-16.393c-4.755 0-9.47.706-14.007 2.108l-49.759 14.364-.478.129-.478.15-2.467.398a8.017 8.017 0 0 1-3.562-.836l-24.452-11.978 28.034-37.105c11.978-13.888 13.907-34.152 4.517-50.118-7.76-13.13-22.005-21.248-37.206-21.248-3.76 0-7.481.478-11.101 1.442l-2.269.607-2.148.935-101.449 44.489-1.512.656-75.923-37.205c-32.072-15.778-68.898-25.208-98.464-25.208-43.75 0-60.443 20.632-66.491 32.927-18.106 36.856 10.306 74.012 84.437 110.431l75.366 37.116 42.636 189.03c4.338 20.811 23.358 36.27 45.124 36.27l2.269-.059c22.363-1.125 40.388-17.708 43.452-39.692l20.791-109.626 25.546 12.584.338.169.359.16c21.148 9.768 43.054 14.921 63.368 14.921 33.067 0 58.891-13.946 70.849-38.279l.159-.338.159-.338 27.178-58.862a47.4 47.4 0 0 0-6.924-51.601zm-20.712 38.538-27.278 59.12c-7.062 14.355-23.436 21.2-43.432 21.2-15.559 0-33.306-4.138-50.556-12.107l-49.779-24.511 2.328-11.689-11.46-7.64-2.686 13.51-3.681 18.324.18.119-24.93 131.562c-.835 7.669-7.083 13.568-14.762 13.956l-.776.02a15.65 15.65 0 0 1-15.32-12.435l-45.84-203.274-88.496-43.572c-25.546-12.554-83.025-43.96-70.471-69.516 5.154-10.504 18.822-15.34 36.459-15.777-15.966 34.23 24.661 50.585 24.661 50.585l10.187-20.373c-13.589-5.093-15.28-16.971-13.589-22.064 0 0 1.125-2.776 3.014-6.397 20.444 3.154 43.044 10.276 63.338 20.254l88.656 43.453 38.538 18.234 13.589-6.795-37.622-17.797 101.449-44.477a12.816 12.816 0 0 1 3.223-.418c4.396 0 8.575 2.288 10.882 6.198 2.885 4.884 2.129 11.092-1.791 15.151l-51.151 67.705 57.678 28.252a38.65 38.65 0 0 0 17.07 3.98 38.64 38.64 0 0 0 11.878-1.88l50.117-14.455a16.77 16.77 0 0 1 5.192-.815c4.836 0 9.53 2.069 12.793 5.849a16.863 16.863 0 0 1 2.388 18.52z" class="st0"/><path d="M133.738 134.337c-7.022 0-12.733 5.7-12.733 12.733s5.711 12.734 12.733 12.734c7.043 0 12.734-5.701 12.734-12.734-.001-7.032-5.691-12.733-12.734-12.733zM182.98 157.257c-7.043 0-12.733 5.7-12.733 12.733s5.69 12.733 12.733 12.733c7.024 0 12.733-5.7 12.733-12.733 0-7.032-5.709-12.733-12.733-12.733zM232.203 180.177c-7.024 0-12.733 5.7-12.733 12.733s5.71 12.733 12.733 12.733c7.043 0 12.733-5.7 12.733-12.733s-5.69-12.733-12.733-12.733zM281.444 203.097c-7.043 0-12.733 5.7-12.733 12.733s5.69 12.733 12.733 12.733c7.024 0 12.733-5.7 12.733-12.733 0-7.032-5.709-12.733-12.733-12.733z" class="st0"/></g></svg>