<svg xmlns="http://www.w3.org/2000/svg" xmlns:xlink="http://www.w3.org/1999/xlink" id="visual" viewBox="0 0 900 600" width="900" height="600" version="1.1"><g transform="translate(900, 0)"><path d="M0 459.7C-36.4 461.8 -72.8 463.9 -101.9 446.5C-131 429.2 -152.8 392.3 -177.9 369.4C-203 346.5 -231.4 337.4 -256.3 321.3C-281.1 305.3 -302.4 282.2 -326.8 260.6C-351.3 239 -378.9 219 -400.9 193.1C-422.9 167.2 -439.3 135.4 -448.2 102.3C-457 69.1 -458.4 34.6 -459.7 0L0 0Z" fill="#FBAE3C"/></g><g transform="translate(0, 600)"><path d="M0 -459.7C29.8 -432.4 59.5 -405.1 89.5 -391.9C119.4 -378.8 149.5 -379.8 179.2 -372.1C208.9 -364.4 238.3 -347.9 261.2 -327.6C284.2 -307.2 300.8 -283 329.9 -263.1C359 -243.2 400.6 -227.7 414.2 -199.5C427.8 -171.2 413.4 -130.4 416.3 -95C419.2 -59.7 439.5 -29.8 459.7 0L0 0Z" fill="#FBAE3C"/></g></svg>