<svg xmlns="http://www.w3.org/2000/svg" viewBox="0 0 900 600">
	<path fill="#69fa8c"
		d="m348 0-6.5 14.3c-6.5 14.4-19.5 43-22.2 71.5-2.6 28.5 5 56.9-3.3 85.4-8.3 28.5-32.7 57.1-48.2 85.8-15.5 28.7-22.1 57.3-3 86 19.2 28.7 64.2 57.3 84 85.8 19.9 28.5 14.5 56.9 10 85.4-4.5 28.5-8.1 57.1-10 71.5L347 600H0V0Z" />
	<path fill="#4ae08a"
		d="m273 0-8.5 14.3C256 28.7 239 57.3 234 85.8s2 56.9 3.7 85.4c1.6 28.5-2 57.1-10.9 85.8-8.8 28.7-22.8 57.3-16.3 86 6.5 28.7 33.5 57.3 45.7 85.8 12.1 28.5 9.5 56.9 16 85.4 6.5 28.5 22.1 57.1 30 71.5L310 600H0V0Z" />
	<path fill="#2ec785"
		d="m137 0 3.5 14.3c3.5 14.4 10.5 43 16.3 71.5 5.9 28.5 10.5 56.9 12 85.4 1.5 28.5-.1 57.1-5.5 85.8-5.3 28.7-14.3 57.3-14.3 86 0 28.7 9 57.3 10.7 85.8 1.6 28.5-4 56.9 1.6 85.4 5.7 28.5 22.7 57.1 31.2 71.5L201 600H0V0Z" />
	<path fill="#14ad7d"
		d="m112 0 1.5 14.3c1.5 14.4 4.5 43 14.3 71.5 9.9 28.5 26.5 56.9 29.2 85.4 2.7 28.5-8.7 57.1-9 85.8-.3 28.7 10.3 57.3 8.7 86-1.7 28.7-15.7 57.3-27.9 85.8-12.1 28.5-22.5 56.9-27.3 85.4-4.8 28.5-4.2 57.1-3.8 71.5L98 600H0V0Z" />
	<path fill="#009473"
		d="m82 0-6.7 14.3c-6.6 14.4-20 43-15 71.5s28.4 56.9 28.2 85.4c-.2 28.5-23.8 57.1-32.3 85.8-8.5 28.7-1.9 57.3 4.6 86 6.5 28.7 12.9 57.3 9.2 85.8-3.7 28.5-17.3 56.9-12.2 85.4C63 542.7 87 571.3 99 585.7l12 14.3H0V0Z" />
</svg>