<svg xmlns="http://www.w3.org/2000/svg" xml:space="preserve" viewBox="0 0 509.888 509.888"><path d="M496.696 437.055 389.3 328.268l-6.034-6.112-12.104 12.104-62.382-62.382c20.892-28.318 33.248-63.32 33.248-101.212C342.029 76.408 265.618 0 171.362 0 77.1 0 .695 76.405.695 170.667S77.1 341.333 171.362 341.333c37.891 0 72.891-12.355 101.21-33.246l62.386 62.379-12.032 12.032 113.4 114.859c16.69 16.701 43.709 16.701 60.371.039 16.661-16.661 16.661-43.679-.001-60.341zM282.237 276.698a154.578 154.578 0 0 1-17.067 15.375V145.064h17.067v131.634zm-204.8 15.285a154.165 154.165 0 0 1-17.067-15.405v-148.58h17.067v163.985zm51.2 26.143v-87.725h17.067v91.685a153.363 153.363 0 0 1-17.067-3.96zm34.134 5.897V221.868a8.533 8.533 0 0 0-8.533-8.533h-34.133a8.533 8.533 0 0 0-8.533 8.533v90.329a153.263 153.263 0 0 1-17.067-8.515V119.464a8.533 8.533 0 0 0-8.533-8.533H51.837a8.533 8.533 0 0 0-8.533 8.533v136.037c-16.135-24.308-25.542-53.47-25.542-84.834 0-84.836 68.764-153.6 153.6-153.6 84.83 0 153.6 68.767 153.6 153.6 0 31.438-9.452 60.664-25.658 85.007V136.531a8.533 8.533 0 0 0-8.533-8.533h-34.133a8.533 8.533 0 0 0-8.533 8.533v167.217a153.044 153.044 0 0 1-17.067 8.495V179.2a8.533 8.533 0 0 0-8.533-8.533h-34.133a8.533 8.533 0 0 0-8.533 8.533v144.831c-2.806.153-5.631.236-8.475.236-2.886 0-5.749-.087-8.593-.244zm34.133-1.91v-134.38h17.067v130.431a153.016 153.016 0 0 1-17.067 3.949zm88.948-24.882a171.868 171.868 0 0 0 12.073-12.072l61.17 61.17-12.069 12.069-61.174-61.167zm198.776 188.097c-9.996 9.996-26.207 9.996-36.195.002l-101.45-102.755 6.076-6.076 30.134-30.123L484.59 449.084c10.035 10.036 10.035 26.248.038 36.244z"/></svg>