<svg xmlns="http://www.w3.org/2000/svg" viewBox="0 0 32 32"><path fill="currentColor" d="M0 25V7h32v18H0zM2 8.938V23h28V8.938H2zM21 16c0-3.313-2.238-6-5-6h13v12H16c2.762 0 5-2.687 5-6zm4 2c.828 0 1.5-.896 1.5-2s-.672-2-1.5-2-1.5.896-1.5 2 .672 2 1.5 2zm-6.882-4.522a.255.255 0 0 1-.062.119c-.027.025-.063.037-.109.037s-.118-.028-.219-.086a4.518 4.518 0 0 0-.368-.189c-.146-.068-.314-.13-.506-.187s-.402-.083-.631-.083c-.18 0-.336.021-.469.065s-.245.104-.334.18c-.09.077-.156.17-.2.277s-.065.222-.065.342c0 .18.049.335.147.466s.229.248.394.35c.165.103.351.198.56.287.207.09.42.185.637.284.217.101.429.214.637.341s.395.279.557.456.293.385.394.624c.1.24.149.521.149.847 0 .425-.078.797-.236 1.118s-.373.588-.645.802a2.792 2.792 0 0 1-.949.484c-.046.014-.096.02-.143.031v1.092h-.983v-.963l-.036.002a4.215 4.215 0 0 1-1.412-.231c-.184-.064-.336-.131-.459-.201s-.211-.132-.265-.186a.47.47 0 0 1-.116-.234 2.135 2.135 0 0 1-.035-.441c0-.129.004-.237.013-.325s.022-.158.041-.213.043-.093.075-.116a.183.183 0 0 1 .109-.034c.058 0 .14.034.247.103s.243.145.409.228c.167.084.365.159.597.229.231.068.499.103.803.103.2 0 .379-.024.537-.072s.293-.115.403-.203.194-.196.253-.325c.059-.13.088-.273.088-.433a.765.765 0 0 0-.15-.472 1.5 1.5 0 0 0-.391-.35c-.16-.102-.342-.197-.546-.287s-.414-.185-.631-.284c-.216-.1-.427-.213-.631-.341s-.386-.278-.546-.455c-.16-.177-.291-.387-.39-.628s-.15-.531-.15-.868c0-.388.072-.728.215-1.021s.337-.537.581-.73.531-.338.862-.434c.17-.05.346-.085.526-.109V10.81h.983v1.034c.039.005.078.003.117.009.191.029.371.068.537.118.167.049.314.104.444.167.129.062.214.113.256.155s.069.076.085.105c.014.029.026.068.037.116s.018.108.021.182a5.057 5.057 0 0 1-.003.579 1.397 1.397 0 0 1-.034.203zM11 16c0 3.313 2.238 6 5 6H3V10h13c-2.762 0-5 2.687-5 6zm-4-2c-.829 0-1.5.896-1.5 2s.671 2 1.5 2c.828 0 1.5-.896 1.5-2s-.672-2-1.5-2z"/></svg>