<svg xmlns="http://www.w3.org/2000/svg" fill="none" viewBox="0 0 28 28"><path fill="#000" d="M15.849 16.455a.395.395 0 0 0-.145.31v2.185l-.982-.983a.399.399 0 0 0-.566 0l-.141.141a.4.4 0 0 0 0 .566l1.764 1.765.14.142.016.015a.4.4 0 0 0 .55-.015l.143-.14.024-.025 1.74-1.741a.42.42 0 0 0 .113-.34.393.393 0 0 0-.113-.227l-.14-.14a.398.398 0 0 0-.567 0l-.98.98v-2.183a.4.4 0 0 0-.401-.4h-.2a.398.398 0 0 0-.255.09Z"/><path fill="#000" fill-rule="evenodd" d="M4.533 10.025C5.441 6.33 8.508 3.5 12.287 3.5c3.318 0 6.096 2.19 7.332 5.223.09-.008.176-.01.262-.01 2.293 0 4.062 1.803 4.44 4.026C25.76 12.921 27 14.248 27 15.67c0 1.53-1.137 2.957-2.758 2.957l-.844.006-.103-.006h-1.093a6 6 0 0 1-11.996.008l-5.331-.002-.18.004h-.61a.987.987 0 0 1-.22-.025c-1.144-.259-2.043-1.076-2.576-2.106a4.86 4.86 0 0 1-.547-2.22c0-2.205 1.594-4.18 3.791-4.26Zm18.852 6.601h-1.48a6.015 6.015 0 0 0-2.34-3.097 6.005 6.005 0 0 0-9.066 3.105l-5.653-.002-.059.002-.092.002h-.482c-.742-.228-1.47-1.171-1.47-2.352 0-1.352.962-2.261 1.929-2.261.144 0 .283.018.418.053a1.003 1.003 0 0 0 1.242-.829c.469-3.34 3.03-5.747 5.955-5.747 2.652 0 4.998 1.97 5.77 4.835a.999.999 0 0 0 1.422.63c.166-.086.289-.167.386-.24l.018-.012c1.289 0 2.512 1.201 2.512 2.913l-.002.16c-.018.34.14.664.418.862.277.197.892.234 1.209.108a.59.59 0 0 1 .222-.044c.32 0 .758.325.758.957 0 .632-.438.957-.758.957l-.754.006-.103-.006Zm-7.18-2.126a4 4 0 1 0 0 8 4 4 0 0 0 0-8Z" clip-rule="evenodd"/></svg>