<svg xmlns="http://www.w3.org/2000/svg" viewBox="0 0 32 32" fill="currentColor"><path d="M22.658 10.988h5.172A13.492 13.492 0 0 1 29.008 16h-5.934a34.522 34.522 0 0 0-.416-5.012zm-2.26-7.092c2.967 1.153 5.402 3.335 6.928 6.09H22.49c-.549-2.805-1.383-4.799-2.092-6.09zm-4.33 6.09V2.99c1.066.047 2.102.216 3.092.493.75 1.263 1.719 3.372 2.33 6.503h-5.422zM9.489 22.014a34.514 34.514 0 0 1-.421-5.012h5.998v5.012H9.489zm-.01-11.026h5.587V16H9.062c.025-1.886.183-3.543.417-5.012zm2.509-7.527a13.463 13.463 0 0 1 3.078-.469v6.994H9.644c.615-3.148 1.591-5.265 2.344-6.525zM3.661 9.986a13.58 13.58 0 0 1 7.096-6.131c-.715 1.29-1.559 3.295-2.114 6.131H3.661zM8.06 16H2a13.412 13.412 0 0 1 1.158-5.012h5.316A34.696 34.696 0 0 0 8.06 16zm.427 6.014h-5.29c-.694-1.543-1.139-3.224-1.204-5.012h6.071a34.24 34.24 0 0 0 .423 5.012zm.164 1.002c.559 2.864 1.416 4.867 2.134 6.142a13.544 13.544 0 0 1-7.11-6.142h4.976zm6.415 0v6.994a13.41 13.41 0 0 1-3.045-.46c-.755-1.236-1.736-3.363-2.356-6.534h5.401zm6.405 0c-.617 3.152-1.592 5.271-2.344 6.512-.979.271-2.006.418-3.059.465v-6.977h5.403zm-5.403-6.014h5.998a34.237 34.237 0 0 1-.422 5.012h-5.576v-5.012zM22.072 16h-6.004v-5.012h5.586A34.49 34.49 0 0 1 22.072 16zm.998 1.002h5.926c-.066 1.787-.506 3.468-1.197 5.012h-5.152c.234-1.471.398-3.119.423-5.012zm4.248 6.014a13.5 13.5 0 0 1-6.947 6.1c.715-1.276 1.561-3.266 2.113-6.1h4.834z"/></svg>